<svg xmlns="http://www.w3.org/2000/svg" width="24" height="24" viewBox="0 0 24 24"><path fill="none" stroke="currentColor" stroke-linecap="round" stroke-linejoin="round" stroke-width="1.5" d="M10.704 4.325a1.5 1.5 0 0 1 2.592 0l1.818 3.12a1.5 1.5 0 0 0 .978.712l3.53.764a1.5 1.5 0 0 1 .8 2.465l-2.405 2.693a1.5 1.5 0 0 0-.374 1.15l.363 3.593a1.5 1.5 0 0 1-2.097 1.524l-3.304-1.456a1.5 1.5 0 0 0-1.21 0l-3.304 1.456a1.5 1.5 0 0 1-2.097-1.524l.363-3.593a1.5 1.5 0 0 0-.373-1.15l-2.406-2.693a1.5 1.5 0 0 1 .8-2.465l3.53-.764a1.5 1.5 0 0 0 .979-.711z"/></svg>